<svg xmlns="http://www.w3.org/2000/svg" xmlns:xlink="http://www.w3.org/1999/xlink" width="300" zoomAndPan="magnify" viewBox="0 0 224.87999 74.999997" height="100" preserveAspectRatio="xMidYMid meet" version="1.0"><defs><g/><clipPath id="bac090e7f7"><path d="M 9 0.0195312 L 110 0.0195312 L 110 72 L 9 72 Z M 9 0.0195312 " clip-rule="nonzero"/></clipPath><clipPath id="0b3de88e70"><path d="M 111 0.0195312 L 213 0.0195312 L 213 72 L 111 72 Z M 111 0.0195312 " clip-rule="nonzero"/></clipPath></defs><g clip-path="url(#bac090e7f7)"><g fill="#f8a92a" fill-opacity="1"><g transform="translate(9.437868, 71.002961)"><g><path d="M 14.640625 0 L 93.296875 0 C 94.160156 0 94.734375 -0.574219 94.734375 -1.433594 L 94.734375 -12.917969 C 94.734375 -13.78125 94.160156 -14.355469 93.296875 -14.355469 L 17.222656 -14.355469 C 15.644531 -14.355469 14.355469 -15.644531 14.355469 -17.222656 L 14.355469 -28.707031 L 85.835938 -28.707031 C 94.304688 -28.707031 100.476562 -34.878906 100.476562 -43.347656 L 100.476562 -57.128906 C 100.476562 -65.597656 94.304688 -71.769531 85.835938 -71.769531 L 14.640625 -71.769531 C 6.171875 -71.769531 0 -65.597656 0 -57.128906 L 0 -14.640625 C 0 -6.171875 6.171875 0 14.640625 0 Z M 14.355469 -43.0625 L 14.355469 -54.542969 C 14.355469 -56.121094 15.644531 -57.414062 17.222656 -57.414062 L 83.25 -57.414062 C 84.828125 -57.414062 86.121094 -56.121094 86.121094 -54.542969 L 86.121094 -45.929688 C 86.121094 -44.351562 84.828125 -43.0625 83.25 -43.0625 Z M 14.355469 -43.0625 "/></g></g></g></g><g clip-path="url(#0b3de88e70)"><g fill="#151f54" fill-opacity="1"><g transform="translate(111.665619, 71.002961)"><g><path d="M 14.640625 0 L 85.835938 0 C 94.304688 0 100.476562 -6.171875 100.476562 -14.640625 L 100.476562 -57.128906 C 100.476562 -65.597656 94.304688 -71.769531 85.835938 -71.769531 L 7.175781 -71.769531 C 6.316406 -71.769531 5.742188 -71.195312 5.742188 -70.332031 L 5.742188 -58.847656 C 5.742188 -57.988281 6.316406 -57.414062 7.175781 -57.414062 L 83.25 -57.414062 C 84.828125 -57.414062 86.121094 -56.121094 86.121094 -54.542969 L 86.121094 -43.0625 L 14.640625 -43.0625 C 6.171875 -43.0625 0 -36.886719 0 -28.421875 L 0 -14.640625 C 0 -6.171875 6.171875 0 14.640625 0 Z M 17.222656 -14.355469 C 15.644531 -14.355469 14.355469 -15.644531 14.355469 -17.222656 L 14.355469 -25.835938 C 14.355469 -27.414062 15.644531 -28.707031 17.222656 -28.707031 L 86.121094 -28.707031 L 86.121094 -17.222656 C 86.121094 -15.644531 84.828125 -14.355469 83.25 -14.355469 Z M 17.222656 -14.355469 "/></g></g></g></g></svg>