<svg xmlns="http://www.w3.org/2000/svg" xmlns:xlink="http://www.w3.org/1999/xlink" width="500" zoomAndPan="magnify" viewBox="0 0 375 74.999997" height="100" preserveAspectRatio="xMidYMid meet" version="1.0"><defs><g/></defs><g fill="#f8a92a" fill-opacity="1"><g transform="translate(0.0000075, 48.363227)"><g><path d="M 3.859375 0 L 24.585938 0 C 24.8125 0 24.964844 -0.152344 24.964844 -0.378906 L 24.964844 -3.402344 C 24.964844 -3.632812 24.8125 -3.78125 24.585938 -3.78125 L 4.539062 -3.78125 C 4.121094 -3.78125 3.78125 -4.121094 3.78125 -4.539062 L 3.78125 -7.566406 L 22.617188 -7.566406 C 24.847656 -7.566406 26.476562 -9.191406 26.476562 -11.421875 L 26.476562 -15.054688 C 26.476562 -17.285156 24.847656 -18.910156 22.617188 -18.910156 L 3.859375 -18.910156 C 1.625 -18.910156 0 -17.285156 0 -15.054688 L 0 -3.859375 C 0 -1.625 1.625 0 3.859375 0 Z M 3.78125 -11.347656 L 3.78125 -14.371094 C 3.78125 -14.789062 4.121094 -15.128906 4.539062 -15.128906 L 21.9375 -15.128906 C 22.351562 -15.128906 22.695312 -14.789062 22.695312 -14.371094 L 22.695312 -12.101562 C 22.695312 -11.6875 22.351562 -11.347656 21.9375 -11.347656 Z M 3.78125 -11.347656 "/></g></g></g><g fill="#f8a92a" fill-opacity="1"><g transform="translate(30.254124, 48.363227)"><g><path d="M 3.859375 0 L 26.097656 0 C 26.324219 0 26.476562 -0.152344 26.476562 -0.378906 L 26.476562 -3.402344 C 26.476562 -3.632812 26.324219 -3.78125 26.097656 -3.78125 L 4.539062 -3.78125 C 4.121094 -3.78125 3.78125 -4.121094 3.78125 -4.539062 L 3.78125 -18.53125 C 3.78125 -18.761719 3.632812 -18.910156 3.402344 -18.910156 L 0.378906 -18.910156 C 0.152344 -18.910156 0 -18.761719 0 -18.53125 L 0 -3.859375 C 0 -1.625 1.625 0 3.859375 0 Z M 3.859375 0 "/></g></g></g><g fill="#f8a92a" fill-opacity="1"><g transform="translate(60.50824, 48.363227)"><g><path d="M 0.378906 0 L 3.402344 0 C 3.632812 0 3.78125 -0.152344 3.78125 -0.378906 L 3.78125 -18.53125 C 3.78125 -18.761719 3.632812 -18.910156 3.402344 -18.910156 L 0.378906 -18.910156 C 0.152344 -18.910156 0 -18.761719 0 -18.53125 L 0 -0.378906 C 0 -0.152344 0.152344 0 0.378906 0 Z M 0.378906 0 "/></g></g></g><g fill="#f8a92a" fill-opacity="1"><g transform="translate(68.071771, 48.363227)"><g><path d="M 11.726562 0 L 14.75 0 C 14.976562 0 15.128906 -0.152344 15.128906 -0.378906 L 15.128906 -15.128906 L 26.097656 -15.128906 C 26.324219 -15.128906 26.476562 -15.28125 26.476562 -15.507812 L 26.476562 -18.53125 C 26.476562 -18.761719 26.324219 -18.910156 26.097656 -18.910156 L 0.378906 -18.910156 C 0.152344 -18.910156 0 -18.761719 0 -18.53125 L 0 -15.507812 C 0 -15.28125 0.152344 -15.128906 0.378906 -15.128906 L 11.347656 -15.128906 L 11.347656 -0.378906 C 11.347656 -0.152344 11.5 0 11.726562 0 Z M 11.726562 0 "/></g></g></g><g fill="#f8a92a" fill-opacity="1"><g transform="translate(98.325887, 48.363227)"><g><path d="M 3.859375 0 L 24.585938 0 C 24.8125 0 24.964844 -0.152344 24.964844 -0.378906 L 24.964844 -3.402344 C 24.964844 -3.632812 24.8125 -3.78125 24.585938 -3.78125 L 4.539062 -3.78125 C 4.121094 -3.78125 3.78125 -4.121094 3.78125 -4.539062 L 3.78125 -7.566406 L 22.617188 -7.566406 C 24.847656 -7.566406 26.476562 -9.191406 26.476562 -11.421875 L 26.476562 -15.054688 C 26.476562 -17.285156 24.847656 -18.910156 22.617188 -18.910156 L 3.859375 -18.910156 C 1.625 -18.910156 0 -17.285156 0 -15.054688 L 0 -3.859375 C 0 -1.625 1.625 0 3.859375 0 Z M 3.78125 -11.347656 L 3.78125 -14.371094 C 3.78125 -14.789062 4.121094 -15.128906 4.539062 -15.128906 L 21.9375 -15.128906 C 22.351562 -15.128906 22.695312 -14.789062 22.695312 -14.371094 L 22.695312 -12.101562 C 22.695312 -11.6875 22.351562 -11.347656 21.9375 -11.347656 Z M 3.78125 -11.347656 "/></g></g></g><g fill="#151f54" fill-opacity="1"><g transform="translate(128.632284, 48.363227)"><g><path d="M 3.859375 0 L 22.617188 0 C 24.847656 0 26.476562 -1.625 26.476562 -3.859375 L 26.476562 -15.054688 C 26.476562 -17.285156 24.847656 -18.910156 22.617188 -18.910156 L 1.890625 -18.910156 C 1.664062 -18.910156 1.511719 -18.761719 1.511719 -18.53125 L 1.511719 -15.507812 C 1.511719 -15.28125 1.664062 -15.128906 1.890625 -15.128906 L 21.9375 -15.128906 C 22.351562 -15.128906 22.695312 -14.789062 22.695312 -14.371094 L 22.695312 -11.347656 L 3.859375 -11.347656 C 1.625 -11.347656 0 -9.71875 0 -7.488281 L 0 -3.859375 C 0 -1.625 1.625 0 3.859375 0 Z M 4.539062 -3.78125 C 4.121094 -3.78125 3.78125 -4.121094 3.78125 -4.539062 L 3.78125 -6.808594 C 3.78125 -7.222656 4.121094 -7.566406 4.539062 -7.566406 L 22.695312 -7.566406 L 22.695312 -4.539062 C 22.695312 -4.121094 22.351562 -3.78125 21.9375 -3.78125 Z M 4.539062 -3.78125 "/></g></g></g><g fill="#151f54" fill-opacity="1"><g transform="translate(158.8864, 48.363227)"><g><path d="M 11.726562 0 L 14.75 0 C 14.976562 0 15.128906 -0.152344 15.128906 -0.378906 L 15.128906 -15.128906 L 26.097656 -15.128906 C 26.324219 -15.128906 26.476562 -15.28125 26.476562 -15.507812 L 26.476562 -18.53125 C 26.476562 -18.761719 26.324219 -18.910156 26.097656 -18.910156 L 0.378906 -18.910156 C 0.152344 -18.910156 0 -18.761719 0 -18.53125 L 0 -15.507812 C 0 -15.28125 0.152344 -15.128906 0.378906 -15.128906 L 11.347656 -15.128906 L 11.347656 -0.378906 C 11.347656 -0.152344 11.5 0 11.726562 0 Z M 11.726562 0 "/></g></g></g><g fill="#151f54" fill-opacity="1"><g transform="translate(189.140516, 48.363227)"><g><path d="M 0.378906 0 L 3.402344 0 C 3.632812 0 3.78125 -0.152344 3.78125 -0.378906 L 3.78125 -7.566406 L 22.695312 -7.566406 L 22.695312 -0.378906 C 22.695312 -0.152344 22.84375 0 23.070312 0 L 26.097656 0 C 26.324219 0 26.476562 -0.152344 26.476562 -0.378906 L 26.476562 -18.53125 C 26.476562 -18.761719 26.324219 -18.910156 26.097656 -18.910156 L 23.070312 -18.910156 C 22.84375 -18.910156 22.695312 -18.761719 22.695312 -18.53125 L 22.695312 -11.347656 L 3.78125 -11.347656 L 3.78125 -18.53125 C 3.78125 -18.761719 3.632812 -18.910156 3.402344 -18.910156 L 0.378906 -18.910156 C 0.152344 -18.910156 0 -18.761719 0 -18.53125 L 0 -0.378906 C 0 -0.152344 0.152344 0 0.378906 0 Z M 0.378906 0 "/></g></g></g><g fill="#151f54" fill-opacity="1"><g transform="translate(219.394632, 48.363227)"><g><path d="M 3.859375 0 L 26.097656 0 C 26.324219 0 26.476562 -0.152344 26.476562 -0.378906 L 26.476562 -3.402344 C 26.476562 -3.632812 26.324219 -3.78125 26.097656 -3.78125 L 4.539062 -3.78125 C 4.121094 -3.78125 3.78125 -4.121094 3.78125 -4.539062 L 3.78125 -18.53125 C 3.78125 -18.761719 3.632812 -18.910156 3.402344 -18.910156 L 0.378906 -18.910156 C 0.152344 -18.910156 0 -18.761719 0 -18.53125 L 0 -3.859375 C 0 -1.625 1.625 0 3.859375 0 Z M 3.859375 0 "/></g></g></g><g fill="#151f54" fill-opacity="1"><g transform="translate(249.648748, 48.363227)"><g><path d="M 3.859375 0 L 24.585938 0 C 24.8125 0 24.964844 -0.152344 24.964844 -0.378906 L 24.964844 -3.402344 C 24.964844 -3.632812 24.8125 -3.78125 24.585938 -3.78125 L 4.539062 -3.78125 C 4.121094 -3.78125 3.78125 -4.121094 3.78125 -4.539062 L 3.78125 -7.566406 L 22.617188 -7.566406 C 24.847656 -7.566406 26.476562 -9.191406 26.476562 -11.421875 L 26.476562 -15.054688 C 26.476562 -17.285156 24.847656 -18.910156 22.617188 -18.910156 L 3.859375 -18.910156 C 1.625 -18.910156 0 -17.285156 0 -15.054688 L 0 -3.859375 C 0 -1.625 1.625 0 3.859375 0 Z M 3.78125 -11.347656 L 3.78125 -14.371094 C 3.78125 -14.789062 4.121094 -15.128906 4.539062 -15.128906 L 21.9375 -15.128906 C 22.351562 -15.128906 22.695312 -14.789062 22.695312 -14.371094 L 22.695312 -12.101562 C 22.695312 -11.6875 22.351562 -11.347656 21.9375 -11.347656 Z M 3.78125 -11.347656 "/></g></g></g><g fill="#151f54" fill-opacity="1"><g transform="translate(279.902864, 48.363227)"><g><path d="M 11.726562 0 L 14.75 0 C 14.976562 0 15.128906 -0.152344 15.128906 -0.378906 L 15.128906 -15.128906 L 26.097656 -15.128906 C 26.324219 -15.128906 26.476562 -15.28125 26.476562 -15.507812 L 26.476562 -18.53125 C 26.476562 -18.761719 26.324219 -18.910156 26.097656 -18.910156 L 0.378906 -18.910156 C 0.152344 -18.910156 0 -18.761719 0 -18.53125 L 0 -15.507812 C 0 -15.28125 0.152344 -15.128906 0.378906 -15.128906 L 11.347656 -15.128906 L 11.347656 -0.378906 C 11.347656 -0.152344 11.5 0 11.726562 0 Z M 11.726562 0 "/></g></g></g><g fill="#151f54" fill-opacity="1"><g transform="translate(310.156981, 48.363227)"><g><path d="M 0.378906 0 L 3.402344 0 C 3.632812 0 3.78125 -0.152344 3.78125 -0.378906 L 3.78125 -18.53125 C 3.78125 -18.761719 3.632812 -18.910156 3.402344 -18.910156 L 0.378906 -18.910156 C 0.152344 -18.910156 0 -18.761719 0 -18.53125 L 0 -0.378906 C 0 -0.152344 0.152344 0 0.378906 0 Z M 0.378906 0 "/></g></g></g><g fill="#151f54" fill-opacity="1"><g transform="translate(317.720512, 48.363227)"><g><path d="M 3.859375 0 L 26.097656 0 C 26.324219 0 26.476562 -0.152344 26.476562 -0.378906 L 26.476562 -3.402344 C 26.476562 -3.632812 26.324219 -3.78125 26.097656 -3.78125 L 4.539062 -3.78125 C 4.121094 -3.78125 3.78125 -4.121094 3.78125 -4.539062 L 3.78125 -14.371094 C 3.78125 -14.789062 4.121094 -15.128906 4.539062 -15.128906 L 26.097656 -15.128906 C 26.324219 -15.128906 26.476562 -15.28125 26.476562 -15.507812 L 26.476562 -18.53125 C 26.476562 -18.761719 26.324219 -18.910156 26.097656 -18.910156 L 3.859375 -18.910156 C 1.625 -18.910156 0 -17.285156 0 -15.054688 L 0 -3.859375 C 0 -1.625 1.625 0 3.859375 0 Z M 3.859375 0 "/></g></g></g><g fill="#151f54" fill-opacity="1"><g transform="translate(347.974618, 48.363227)"><g><path d="M 0.378906 0 L 22.617188 0 C 24.847656 0 26.476562 -1.625 26.476562 -3.859375 L 26.476562 -7.488281 C 26.476562 -9.71875 24.847656 -11.347656 22.617188 -11.347656 L 4.539062 -11.347656 C 4.121094 -11.347656 3.78125 -11.6875 3.78125 -12.101562 L 3.78125 -14.371094 C 3.78125 -14.789062 4.121094 -15.128906 4.539062 -15.128906 L 24.585938 -15.128906 C 24.8125 -15.128906 24.964844 -15.28125 24.964844 -15.507812 L 24.964844 -18.53125 C 24.964844 -18.761719 24.8125 -18.910156 24.585938 -18.910156 L 3.859375 -18.910156 C 1.625 -18.910156 0 -17.285156 0 -15.054688 L 0 -11.421875 C 0 -9.191406 1.625 -7.566406 3.859375 -7.566406 L 21.9375 -7.566406 C 22.351562 -7.566406 22.695312 -7.222656 22.695312 -6.808594 L 22.695312 -4.539062 C 22.695312 -4.121094 22.351562 -3.78125 21.9375 -3.78125 L 0.378906 -3.78125 C 0.152344 -3.78125 0 -3.632812 0 -3.402344 L 0 -0.378906 C 0 -0.152344 0.152344 0 0.378906 0 Z M 0.378906 0 "/></g></g></g></svg>