<svg xmlns="http://www.w3.org/2000/svg" xmlns:xlink="http://www.w3.org/1999/xlink" width="300" zoomAndPan="magnify" viewBox="0 0 224.87999 74.999997" height="100" preserveAspectRatio="xMidYMid meet" version="1.0"><defs><g/><clipPath id="addb92c043"><path d="M 0 0.0195312 L 224.761719 0.0195312 L 224.761719 74.980469 L 0 74.980469 Z M 0 0.0195312 " clip-rule="nonzero"/></clipPath><clipPath id="65a81d2488"><path d="M 30 0.0195312 L 112 0.0195312 L 112 58 L 30 58 Z M 30 0.0195312 " clip-rule="nonzero"/></clipPath><clipPath id="70b5200a29"><path d="M 112 0.0195312 L 195 0.0195312 L 195 58 L 112 58 Z M 112 0.0195312 " clip-rule="nonzero"/></clipPath></defs><g clip-path="url(#addb92c043)"><path fill="#ffffff" d="M 0 0.0195312 L 224.878906 0.0195312 L 224.878906 74.980469 L 0 74.980469 Z M 0 0.0195312 " fill-opacity="1" fill-rule="nonzero"/><path fill="#ffffff" d="M 0 0.0195312 L 224.878906 0.0195312 L 224.878906 74.980469 L 0 74.980469 Z M 0 0.0195312 " fill-opacity="1" fill-rule="nonzero"/></g><g clip-path="url(#65a81d2488)"><g fill="#f8a92a" fill-opacity="1"><g transform="translate(30.259891, 57.798834)"><g><path d="M 11.832031 0 L 75.398438 0 C 76.09375 0 76.558594 -0.464844 76.558594 -1.160156 L 76.558594 -10.441406 C 76.558594 -11.136719 76.09375 -11.601562 75.398438 -11.601562 L 13.917969 -11.601562 C 12.644531 -11.601562 11.601562 -12.644531 11.601562 -13.917969 L 11.601562 -23.199219 L 69.367188 -23.199219 C 76.210938 -23.199219 81.199219 -28.1875 81.199219 -35.03125 L 81.199219 -46.167969 C 81.199219 -53.011719 76.210938 -58 69.367188 -58 L 11.832031 -58 C 4.988281 -58 0 -53.011719 0 -46.167969 L 0 -11.832031 C 0 -4.988281 4.988281 0 11.832031 0 Z M 11.601562 -34.800781 L 11.601562 -44.078125 C 11.601562 -45.355469 12.644531 -46.398438 13.917969 -46.398438 L 67.28125 -46.398438 C 68.554688 -46.398438 69.597656 -45.355469 69.597656 -44.078125 L 69.597656 -37.121094 C 69.597656 -35.84375 68.554688 -34.800781 67.28125 -34.800781 Z M 11.601562 -34.800781 "/></g></g></g></g><g clip-path="url(#70b5200a29)"><g fill="#151f54" fill-opacity="1"><g transform="translate(112.875665, 57.798834)"><g><path d="M 11.832031 0 L 69.367188 0 C 76.210938 0 81.199219 -4.988281 81.199219 -11.832031 L 81.199219 -46.167969 C 81.199219 -53.011719 76.210938 -58 69.367188 -58 L 5.800781 -58 C 5.105469 -58 4.640625 -57.535156 4.640625 -56.839844 L 4.640625 -47.558594 C 4.640625 -46.863281 5.105469 -46.398438 5.800781 -46.398438 L 67.28125 -46.398438 C 68.554688 -46.398438 69.597656 -45.355469 69.597656 -44.078125 L 69.597656 -34.800781 L 11.832031 -34.800781 C 4.988281 -34.800781 0 -29.8125 0 -22.96875 L 0 -11.832031 C 0 -4.988281 4.988281 0 11.832031 0 Z M 13.917969 -11.601562 C 12.644531 -11.601562 11.601562 -12.644531 11.601562 -13.917969 L 11.601562 -20.878906 C 11.601562 -22.15625 12.644531 -23.199219 13.917969 -23.199219 L 69.597656 -23.199219 L 69.597656 -13.917969 C 69.597656 -12.644531 68.554688 -11.601562 67.28125 -11.601562 Z M 13.917969 -11.601562 "/></g></g></g></g><g fill="#f8a92a" fill-opacity="1"><g transform="translate(30.259891, 72.241097)"><g><path d="M 1.6875 0 L 10.765625 0 C 10.863281 0 10.929688 -0.0664062 10.929688 -0.164062 L 10.929688 -1.492188 C 10.929688 -1.589844 10.863281 -1.65625 10.765625 -1.65625 L 1.988281 -1.65625 C 1.804688 -1.65625 1.65625 -1.804688 1.65625 -1.988281 L 1.65625 -3.3125 L 9.902344 -3.3125 C 10.878906 -3.3125 11.59375 -4.023438 11.59375 -5 L 11.59375 -6.589844 C 11.59375 -7.566406 10.878906 -8.28125 9.902344 -8.28125 L 1.6875 -8.28125 C 0.710938 -8.28125 0 -7.566406 0 -6.589844 L 0 -1.6875 C 0 -0.710938 0.710938 0 1.6875 0 Z M 1.65625 -4.96875 L 1.65625 -6.292969 C 1.65625 -6.476562 1.804688 -6.625 1.988281 -6.625 L 9.605469 -6.625 C 9.785156 -6.625 9.9375 -6.476562 9.9375 -6.292969 L 9.9375 -5.300781 C 9.9375 -5.117188 9.785156 -4.96875 9.605469 -4.96875 Z M 1.65625 -4.96875 "/></g></g></g><g fill="#f8a92a" fill-opacity="1"><g transform="translate(43.506271, 72.241097)"><g><path d="M 1.6875 0 L 11.425781 0 C 11.527344 0 11.59375 -0.0664062 11.59375 -0.164062 L 11.59375 -1.492188 C 11.59375 -1.589844 11.527344 -1.65625 11.425781 -1.65625 L 1.988281 -1.65625 C 1.804688 -1.65625 1.65625 -1.804688 1.65625 -1.988281 L 1.65625 -8.113281 C 1.65625 -8.214844 1.589844 -8.28125 1.492188 -8.28125 L 0.164062 -8.28125 C 0.0664062 -8.28125 0 -8.214844 0 -8.113281 L 0 -1.6875 C 0 -0.710938 0.710938 0 1.6875 0 Z M 1.6875 0 "/></g></g></g><g fill="#f8a92a" fill-opacity="1"><g transform="translate(56.75265, 72.241097)"><g><path d="M 0.164062 0 L 1.492188 0 C 1.589844 0 1.65625 -0.0664062 1.65625 -0.164062 L 1.65625 -8.113281 C 1.65625 -8.214844 1.589844 -8.28125 1.492188 -8.28125 L 0.164062 -8.28125 C 0.0664062 -8.28125 0 -8.214844 0 -8.113281 L 0 -0.164062 C 0 -0.0664062 0.0664062 0 0.164062 0 Z M 0.164062 0 "/></g></g></g><g fill="#f8a92a" fill-opacity="1"><g transform="translate(60.064246, 72.241097)"><g><path d="M 5.132812 0 L 6.457031 0 C 6.558594 0 6.625 -0.0664062 6.625 -0.164062 L 6.625 -6.625 L 11.425781 -6.625 C 11.527344 -6.625 11.59375 -6.691406 11.59375 -6.789062 L 11.59375 -8.113281 C 11.59375 -8.214844 11.527344 -8.28125 11.425781 -8.28125 L 0.164062 -8.28125 C 0.0664062 -8.28125 0 -8.214844 0 -8.113281 L 0 -6.789062 C 0 -6.691406 0.0664062 -6.625 0.164062 -6.625 L 4.96875 -6.625 L 4.96875 -0.164062 C 4.96875 -0.0664062 5.035156 0 5.132812 0 Z M 5.132812 0 "/></g></g></g><g fill="#f8a92a" fill-opacity="1"><g transform="translate(73.310626, 72.241097)"><g><path d="M 1.6875 0 L 10.765625 0 C 10.863281 0 10.929688 -0.0664062 10.929688 -0.164062 L 10.929688 -1.492188 C 10.929688 -1.589844 10.863281 -1.65625 10.765625 -1.65625 L 1.988281 -1.65625 C 1.804688 -1.65625 1.65625 -1.804688 1.65625 -1.988281 L 1.65625 -3.3125 L 9.902344 -3.3125 C 10.878906 -3.3125 11.59375 -4.023438 11.59375 -5 L 11.59375 -6.589844 C 11.59375 -7.566406 10.878906 -8.28125 9.902344 -8.28125 L 1.6875 -8.28125 C 0.710938 -8.28125 0 -7.566406 0 -6.589844 L 0 -1.6875 C 0 -0.710938 0.710938 0 1.6875 0 Z M 1.65625 -4.96875 L 1.65625 -6.292969 C 1.65625 -6.476562 1.804688 -6.625 1.988281 -6.625 L 9.605469 -6.625 C 9.785156 -6.625 9.9375 -6.476562 9.9375 -6.292969 L 9.9375 -5.300781 C 9.9375 -5.117188 9.785156 -4.96875 9.605469 -4.96875 Z M 1.65625 -4.96875 "/></g></g></g><g fill="#151f54" fill-opacity="1"><g transform="translate(86.579901, 72.241097)"><g><path d="M 1.6875 0 L 9.902344 0 C 10.878906 0 11.59375 -0.710938 11.59375 -1.6875 L 11.59375 -6.589844 C 11.59375 -7.566406 10.878906 -8.28125 9.902344 -8.28125 L 0.828125 -8.28125 C 0.730469 -8.28125 0.664062 -8.214844 0.664062 -8.113281 L 0.664062 -6.789062 C 0.664062 -6.691406 0.730469 -6.625 0.828125 -6.625 L 9.605469 -6.625 C 9.785156 -6.625 9.9375 -6.476562 9.9375 -6.292969 L 9.9375 -4.96875 L 1.6875 -4.96875 C 0.710938 -4.96875 0 -4.257812 0 -3.277344 L 0 -1.6875 C 0 -0.710938 0.710938 0 1.6875 0 Z M 1.988281 -1.65625 C 1.804688 -1.65625 1.65625 -1.804688 1.65625 -1.988281 L 1.65625 -2.980469 C 1.65625 -3.164062 1.804688 -3.3125 1.988281 -3.3125 L 9.9375 -3.3125 L 9.9375 -1.988281 C 9.9375 -1.804688 9.785156 -1.65625 9.605469 -1.65625 Z M 1.988281 -1.65625 "/></g></g></g><g fill="#151f54" fill-opacity="1"><g transform="translate(99.826281, 72.241097)"><g><path d="M 5.132812 0 L 6.457031 0 C 6.558594 0 6.625 -0.0664062 6.625 -0.164062 L 6.625 -6.625 L 11.425781 -6.625 C 11.527344 -6.625 11.59375 -6.691406 11.59375 -6.789062 L 11.59375 -8.113281 C 11.59375 -8.214844 11.527344 -8.28125 11.425781 -8.28125 L 0.164062 -8.28125 C 0.0664062 -8.28125 0 -8.214844 0 -8.113281 L 0 -6.789062 C 0 -6.691406 0.0664062 -6.625 0.164062 -6.625 L 4.96875 -6.625 L 4.96875 -0.164062 C 4.96875 -0.0664062 5.035156 0 5.132812 0 Z M 5.132812 0 "/></g></g></g><g fill="#151f54" fill-opacity="1"><g transform="translate(113.072661, 72.241097)"><g><path d="M 0.164062 0 L 1.492188 0 C 1.589844 0 1.65625 -0.0664062 1.65625 -0.164062 L 1.65625 -3.3125 L 9.9375 -3.3125 L 9.9375 -0.164062 C 9.9375 -0.0664062 10.003906 0 10.101562 0 L 11.425781 0 C 11.527344 0 11.59375 -0.0664062 11.59375 -0.164062 L 11.59375 -8.113281 C 11.59375 -8.214844 11.527344 -8.28125 11.425781 -8.28125 L 10.101562 -8.28125 C 10.003906 -8.28125 9.9375 -8.214844 9.9375 -8.113281 L 9.9375 -4.96875 L 1.65625 -4.96875 L 1.65625 -8.113281 C 1.65625 -8.214844 1.589844 -8.28125 1.492188 -8.28125 L 0.164062 -8.28125 C 0.0664062 -8.28125 0 -8.214844 0 -8.113281 L 0 -0.164062 C 0 -0.0664062 0.0664062 0 0.164062 0 Z M 0.164062 0 "/></g></g></g><g fill="#151f54" fill-opacity="1"><g transform="translate(126.319041, 72.241097)"><g><path d="M 1.6875 0 L 11.425781 0 C 11.527344 0 11.59375 -0.0664062 11.59375 -0.164062 L 11.59375 -1.492188 C 11.59375 -1.589844 11.527344 -1.65625 11.425781 -1.65625 L 1.988281 -1.65625 C 1.804688 -1.65625 1.65625 -1.804688 1.65625 -1.988281 L 1.65625 -8.113281 C 1.65625 -8.214844 1.589844 -8.28125 1.492188 -8.28125 L 0.164062 -8.28125 C 0.0664062 -8.28125 0 -8.214844 0 -8.113281 L 0 -1.6875 C 0 -0.710938 0.710938 0 1.6875 0 Z M 1.6875 0 "/></g></g></g><g fill="#151f54" fill-opacity="1"><g transform="translate(139.565421, 72.241097)"><g><path d="M 1.6875 0 L 10.765625 0 C 10.863281 0 10.929688 -0.0664062 10.929688 -0.164062 L 10.929688 -1.492188 C 10.929688 -1.589844 10.863281 -1.65625 10.765625 -1.65625 L 1.988281 -1.65625 C 1.804688 -1.65625 1.65625 -1.804688 1.65625 -1.988281 L 1.65625 -3.3125 L 9.902344 -3.3125 C 10.878906 -3.3125 11.59375 -4.023438 11.59375 -5 L 11.59375 -6.589844 C 11.59375 -7.566406 10.878906 -8.28125 9.902344 -8.28125 L 1.6875 -8.28125 C 0.710938 -8.28125 0 -7.566406 0 -6.589844 L 0 -1.6875 C 0 -0.710938 0.710938 0 1.6875 0 Z M 1.65625 -4.96875 L 1.65625 -6.292969 C 1.65625 -6.476562 1.804688 -6.625 1.988281 -6.625 L 9.605469 -6.625 C 9.785156 -6.625 9.9375 -6.476562 9.9375 -6.292969 L 9.9375 -5.300781 C 9.9375 -5.117188 9.785156 -4.96875 9.605469 -4.96875 Z M 1.65625 -4.96875 "/></g></g></g><g fill="#151f54" fill-opacity="1"><g transform="translate(152.811801, 72.241097)"><g><path d="M 5.132812 0 L 6.457031 0 C 6.558594 0 6.625 -0.0664062 6.625 -0.164062 L 6.625 -6.625 L 11.425781 -6.625 C 11.527344 -6.625 11.59375 -6.691406 11.59375 -6.789062 L 11.59375 -8.113281 C 11.59375 -8.214844 11.527344 -8.28125 11.425781 -8.28125 L 0.164062 -8.28125 C 0.0664062 -8.28125 0 -8.214844 0 -8.113281 L 0 -6.789062 C 0 -6.691406 0.0664062 -6.625 0.164062 -6.625 L 4.96875 -6.625 L 4.96875 -0.164062 C 4.96875 -0.0664062 5.035156 0 5.132812 0 Z M 5.132812 0 "/></g></g></g><g fill="#151f54" fill-opacity="1"><g transform="translate(166.05818, 72.241097)"><g><path d="M 0.164062 0 L 1.492188 0 C 1.589844 0 1.65625 -0.0664062 1.65625 -0.164062 L 1.65625 -8.113281 C 1.65625 -8.214844 1.589844 -8.28125 1.492188 -8.28125 L 0.164062 -8.28125 C 0.0664062 -8.28125 0 -8.214844 0 -8.113281 L 0 -0.164062 C 0 -0.0664062 0.0664062 0 0.164062 0 Z M 0.164062 0 "/></g></g></g><g fill="#151f54" fill-opacity="1"><g transform="translate(169.369776, 72.241097)"><g><path d="M 1.6875 0 L 11.425781 0 C 11.527344 0 11.59375 -0.0664062 11.59375 -0.164062 L 11.59375 -1.492188 C 11.59375 -1.589844 11.527344 -1.65625 11.425781 -1.65625 L 1.988281 -1.65625 C 1.804688 -1.65625 1.65625 -1.804688 1.65625 -1.988281 L 1.65625 -6.292969 C 1.65625 -6.476562 1.804688 -6.625 1.988281 -6.625 L 11.425781 -6.625 C 11.527344 -6.625 11.59375 -6.691406 11.59375 -6.789062 L 11.59375 -8.113281 C 11.59375 -8.214844 11.527344 -8.28125 11.425781 -8.28125 L 1.6875 -8.28125 C 0.710938 -8.28125 0 -7.566406 0 -6.589844 L 0 -1.6875 C 0 -0.710938 0.710938 0 1.6875 0 Z M 1.6875 0 "/></g></g></g><g fill="#151f54" fill-opacity="1"><g transform="translate(182.616152, 72.241097)"><g><path d="M 0.164062 0 L 9.902344 0 C 10.878906 0 11.59375 -0.710938 11.59375 -1.6875 L 11.59375 -3.277344 C 11.59375 -4.257812 10.878906 -4.96875 9.902344 -4.96875 L 1.988281 -4.96875 C 1.804688 -4.96875 1.65625 -5.117188 1.65625 -5.300781 L 1.65625 -6.292969 C 1.65625 -6.476562 1.804688 -6.625 1.988281 -6.625 L 10.765625 -6.625 C 10.863281 -6.625 10.929688 -6.691406 10.929688 -6.789062 L 10.929688 -8.113281 C 10.929688 -8.214844 10.863281 -8.28125 10.765625 -8.28125 L 1.6875 -8.28125 C 0.710938 -8.28125 0 -7.566406 0 -6.589844 L 0 -5 C 0 -4.023438 0.710938 -3.3125 1.6875 -3.3125 L 9.605469 -3.3125 C 9.785156 -3.3125 9.9375 -3.164062 9.9375 -2.980469 L 9.9375 -1.988281 C 9.9375 -1.804688 9.785156 -1.65625 9.605469 -1.65625 L 0.164062 -1.65625 C 0.0664062 -1.65625 0 -1.589844 0 -1.492188 L 0 -0.164062 C 0 -0.0664062 0.0664062 0 0.164062 0 Z M 0.164062 0 "/></g></g></g></svg>